PathFileType	4	(X/Y/Z)	s07c0202.trc
DataRate	CameraRate	NumFrames	NumMarkers	Units	OrigDataRate	OrigDataStartFrame	OrigNumFrames
200	200	4	48	mm	200	1750	2000
Frame#	Time	racr			lacr			c7			jug			rlel			rdr			llel			ldr			s2			lic			ric			lasi			rasi			rpsi			lpsi			rgt			lgt			rth1			rth2			rth3			rth4			rlfc			rmfc			rsh1			rsh2			rsh3			rsh4			rlmal			rcal			rtoe			rmt5			lth1			lth2			lth4			lth3			llfc			lmfc			lsh1			lsh2			lsh3			lsh4			llmal			lcal			ltoe			lmt5			SBIKE			LBIKE			RBIKE			
		X1	Y1	Z1	X2	Y2	Z2	X3	Y3	Z3	X4	Y4	Z4	X5	Y5	Z5	X6	Y6	Z6	X7	Y7	Z7	X8	Y8	Z8	X9	Y9	Z9	X10	Y10	Z10	X11	Y11	Z11	X12	Y12	Z12	X13	Y13	Z13	X14	Y14	Z14	X15	Y15	Z15	X16	Y16	Z16	X17	Y17	Z17	X18	Y18	Z18	X19	Y19	Z19	X20	Y20	Z20	X21	Y21	Z21	X22	Y22	Z22	X23	Y23	Z23	X24	Y24	Z24	X25	Y25	Z25	X26	Y26	Z26	X27	Y27	Z27	X28	Y28	Z28	X29	Y29	Z29	X30	Y30	Z30	X31	Y31	Z31	X32	Y32	Z32	X33	Y33	Z33	X34	Y34	Z34	X35	Y35	Z35	X36	Y36	Z36	X37	Y37	Z37	X38	Y38	Z38	X39	Y39	Z39	X40	Y40	Z40	X41	Y41	Z41	X42	Y42	Z42	X43	Y43	Z43	X44	Y44	Z44	X45	Y45	Z45	X46	Y46	Z46	X47	Y47	Z47	X48	Y48	Z48	
1750	8.7500	395.462375	1479.748832	-77.347583	387.640769	1462.296663	-372.109976	348.935094	1529.936207	-225.844196	336.039160	1384.985256	-222.796828	507.253387	1159.868563	2.272237	687.138205	925.451014	-72.397586	498.134472	1152.462438	-452.719519	693.491578	927.266213	-422.569779	-161.528080	1188.450570	-241.780023	-10.280845	1266.446959	-377.413789	-2.428852	1244.874448	-84.397866	32.161511	1193.058233	-354.229126	21.595083	1191.601169	-103.851436	-140.070111	1225.992278	-186.950279	-128.525057	1242.812494	-294.065703	-43.239223	1099.457026	-53.431437	-39.185612	1107.466637	-416.118179	91.338372	1004.691803	-49.408285	169.228898	965.394138	-60.106321	218.858625	895.728372	-62.588240	190.887965	992.508085	-74.037976	315.481175	795.243353	-98.090256	307.094853	779.273940	-199.681276	289.482801	654.415811	-70.346672	291.426765	566.947398	-90.343518	254.228967	488.312138	-83.305372	302.504382	567.947475	-128.829209	218.979776	354.758941	-80.857027	149.986254	314.985070	-107.771238	439.995926	303.686321	-130.697228	368.664477	266.962193	-59.200531	52.507315	1025.765566	-422.549109	137.056291	1000.107747	-424.017206	156.127606	1029.848182	-414.122243	198.364570	935.484742	-423.354331	328.468901	812.169640	-393.464953	321.185681	793.957266	-293.693896	224.468823	705.377440	-411.234988	178.327733	634.973327	-392.637811	99.818184	592.215713	-399.638392	183.979441	633.741313	-350.797730	-3.114048	511.893281	-397.904459	-78.718051	527.159199	-363.742834	124.783195	321.511930	-362.454967	47.286928	356.138124	-425.153539	-263.960919	967.703985	-238.931928	-83.486997	78.998482	-437.874755	-83.483372	78.829896	-40.264447	
1751	8.7550	395.763846	1479.713383	-78.108700	386.961202	1461.970214	-373.003840	348.904272	1529.755492	-226.471463	335.982034	1384.943521	-223.332327	507.549702	1159.850300	1.972054	687.157276	925.163361	-72.445819	497.449664	1152.060574	-453.110788	693.294665	927.349370	-422.920829	-161.202546	1187.897975	-241.839332	-10.258170	1266.589214	-377.177675	-1.865176	1243.648431	-84.184845	32.445191	1193.287912	-354.173944	22.060209	1190.148420	-103.740607	-139.638053	1225.177324	-186.829567	-128.302155	1242.490522	-294.085135	-43.359322	1097.648387	-53.777538	-38.555105	1108.247689	-416.650355	89.568605	999.544986	-49.301243	166.452804	958.265492	-59.946108	214.255544	887.376117	-62.431806	188.631677	984.810653	-74.182740	308.587109	785.352821	-97.568544	299.762771	768.978562	-198.537509	282.938083	644.634407	-69.953483	285.617726	557.258700	-89.822844	249.031396	478.371689	-83.057270	296.940787	558.369515	-128.330897	214.871968	344.352711	-80.769550	146.413441	304.519655	-107.767407	436.463734	294.160057	-130.421578	364.573889	256.758346	-59.690515	54.375080	1028.463366	-423.117802	139.494381	1004.672202	-424.492815	157.848211	1034.835748	-414.449883	202.236445	941.478996	-423.946810	334.884115	820.288074	-393.328146	327.551316	802.352180	-293.271398	230.904012	713.820938	-410.836837	184.444419	643.687692	-392.459982	105.582667	601.445328	-399.674870	189.918954	642.519290	-350.734480	1.985435	521.958582	-398.027123	-73.593197	537.831580	-363.734963	127.977999	330.382651	-362.602099	50.817484	365.742264	-425.170519	-263.967745	967.695343	-239.069705	-83.486365	78.977411	-437.868511	-83.509250	78.818548	-40.274688	
1752	8.7600	396.093834	1479.733063	-78.801367	386.364002	1461.687210	-373.947649	348.939756	1529.638346	-227.052875	336.033568	1384.944145	-223.831028	507.905894	1159.910885	1.670853	687.254041	924.934618	-72.547836	496.904469	1151.737241	-453.388216	693.133304	927.409159	-423.277149	-160.859254	1187.530751	-241.842933	-10.197079	1266.824245	-376.929087	-1.291686	1242.500904	-84.069427	32.789879	1193.603046	-354.093636	22.538570	1188.874206	-103.623072	-139.088139	1224.424818	-186.762844	-128.088614	1242.232430	-294.857148	-43.457184	1095.884812	-54.097165	-37.852112	1109.261750	-417.233528	87.604616	994.351481	-48.870600	163.480848	951.233389	-59.769085	209.756545	879.117327	-62.114714	186.294334	976.973358	-74.568395	301.433387	775.839148	-96.983172	292.265763	759.285703	-197.664058	275.979144	635.283726	-69.487210	279.520044	547.972946	-89.290889	243.362973	468.958453	-82.465332	291.003409	549.139035	-127.758669	210.318960	334.294166	-80.792149	142.360852	294.559363	-107.794339	433.590658	283.716865	-131.737556	360.476044	247.036755	-59.574889	56.152291	1031.184379	-423.587017	141.790708	1009.399282	-425.020571	159.479871	1039.852707	-414.804565	205.927888	947.436630	-424.508706	341.195588	828.697153	-393.210115	333.709955	810.888007	-293.155606	237.477880	722.114796	-410.626011	190.292531	652.585993	-392.144188	110.869040	610.211040	-399.080701	195.926616	651.265507	-350.600125	7.234489	531.634926	-398.099020	-68.389996	548.062900	-363.869489	131.825490	339.409450	-362.741892	54.850665	375.094149	-425.229745	-263.970844	967.700994	-239.188140	-83.471994	78.971636	-437.870016	-83.530289	78.879378	-40.285964	
1753	8.7650	396.462688	1479.805042	-79.537574	385.796476	1461.442379	-374.907129	349.005146	1529.580796	-227.631633	336.116922	1384.995539	-224.343228	508.288035	1159.973429	1.406846	687.389229	924.733110	-72.624037	496.314322	1151.396452	-453.726589	693.021890	927.561467	-423.805282	-160.499057	1187.239637	-241.852733	-9.714349	1267.103760	-376.943954	-0.712368	1241.431583	-83.945964	33.127752	1194.013760	-353.964686	23.053102	1187.700957	-103.418766	-138.387098	1223.737052	-186.777235	-127.735315	1242.032918	-294.313098	-43.595987	1094.195465	-54.354909	-37.260512	1110.130430	-418.060305	85.510808	989.559550	-48.614379	160.312454	944.456096	-59.587143	204.850255	871.216364	-61.812093	183.450682	969.275107	-75.356095	294.188938	766.703168	-96.464093	284.268990	749.703279	-197.379977	268.543520	626.627788	-68.961982	272.905506	539.239810	-88.581570	237.215815	459.929777	-82.192914	284.714901	540.406850	-126.966457	205.148075	324.805687	-80.702180	137.849267	285.144960	-107.852798	428.999939	273.492663	-133.276595	355.885370	237.426724	-59.445276	57.884637	1033.927953	-424.131559	143.983947	1013.967869	-425.504045	161.042350	1044.765632	-415.040216	209.416264	953.375510	-424.938038	347.263574	837.046779	-392.903526	339.978832	820.003109	-292.174644	243.885399	730.466033	-410.408468	196.203435	661.361783	-391.945717	116.273946	619.315773	-399.282248	201.784674	659.996365	-350.359962	12.390195	541.428675	-398.228431	-62.927285	557.896067	-364.189035	136.294286	348.532098	-362.867122	59.542662	384.511889	-425.252602	-263.954124	967.684733	-239.288218	-83.479116	78.980990	-437.868490	-83.484184	78.827160	-40.272494	
